<svg xmlns="http://www.w3.org/2000/svg" height="75.4594" width="240">
  <path d="M138.6962 61.4882c-1.1976-.1447-2.515-.3827-3.454-.624-7.7395-1.9888-13.8623-8.437-15.4347-16.2553-.663-3.296-.5594-6.764.2963-9.927 1.3745-5.081 4.789-9.67 9.2523-12.435 8.456-5.238 19.3-3.998 26.305 3.007 8.311 8.31 8.311 21.753 0 30.063-2.643 2.643-5.894 4.538-9.427 5.493-1.792.485-3.091.656-5.218.687-1.089.016-2.133.011-2.319-.012zm3.4553-5.8364c2.6118-.2752 4.9167-1.1153 7.179-2.6167 1.233-.818 3.228-2.813 4.0463-4.046 2.7524-4.147 3.425-8.979 1.8925-13.595-.7574-2.281-1.9408-4.163-3.762-5.985-1.3776-1.377-2.4222-2.14-4.048-2.956-4.254-2.135-9.4068-2.135-13.6608 0-1.6257.816-2.6703 1.579-4.048 2.957-1.3775 1.378-2.1405 2.423-2.9563 4.048-2.1364 4.258-2.1364 9.404 0 13.661.2642.526.7533 1.368 1.087 1.871.8182 1.233 2.8132 3.228 4.0463 4.046 3.1435 2.087 6.6762 2.991 10.224 2.617zm-1.426-14.6456c0-.226 3.3013-11.8626 3.4026-11.9938.066-.0844.26-.0546.766.1175 2.589.88 4.958 2.73 6.483 5.063.259.395.457.779.442.854-.024.115-10.817 6.096-11.02 6.106-.04.002-.072-.065-.072-.148zm-22.1177-14.678c-.874-.91-1.1124-1.4896-1.1157-2.711-.003-1.443.189-1.8605 1.432-3.103 1.24-1.24 1.659-1.4332 3.103-1.4343.89-.001 1.017.023 1.595.305.346.168.815.497 1.044.731l.416.425-1.14 1.02c-1.58 1.414-2.977 3.017-4.17 4.784-.224.332-.443.604-.485.604-.043 0-.347-.281-.676-.623zm28.206-10.3458c-3.703-.9745-7.3882-1.064-11.21-.2723-.6644.138-1.3318.272-1.483.298l-.2752.048.039-1.389c.033-1.169.0752-1.481.2664-1.969.313-.799 1.274-1.762 2.081-2.086l.5797-.233h8.601l.58.233c.805.323 1.7667 1.287 2.0826 2.087.2053.52.2294.735.2328 2.076.003 1.261-.019 1.499-.141 1.512-.079.009-.688-.127-1.353-.302z" fill="#3b97d0"/>
  <path d="M88.9553 75.3692c-2.798-.1944-6.8918-.9756-9.332-1.7808l-.7315-.2413.649-3.096c.3568-1.703.67-3.118.696-3.144.0262-.026.4764.102 1.0007.284 1.0763.374 3.1832.928 4.6253 1.216 1.7328.347 3.249.505 5.372.562 7.948.212 11.7548-2.005 12.8992-7.512.0938-.451.1707-1.509.2052-2.824l.055-2.102-1.003.475c-1.8665.883-3.6968 1.488-5.4486 1.803-1.1812.213-4.2707.293-5.6637.147-6.528-.682-11.201-3.986-13.799-9.756-1.333-2.96-1.91-6.265-1.816-10.4.053-2.339.187-3.494.615-5.315 1.887-8.025 7.69-13.208 16.008-14.298 1.337-.1754 5.222-.2023 7.219-.05 2.585.197 5.453.6886 9.928 1.7013l1.187.269-.033 19.5254c-.035 21.2307-.008 20.1167-.56 22.5943-.487 2.186-1.4835 4.5183-2.529 5.918-2.6506 3.55-7.255 5.5785-13.7006 6.0355-1.6047.1137-4.1546.1107-5.8468-.007zm9.732-22.6905c1.734-.376 3.5806-1.0934 4.8328-1.8774l.801-.5012.025-11.905.025-11.905-.363-.097c-1.659-.444-3.614-.682-6.161-.75-3.037-.081-4.836.172-6.624.932-3.123 1.327-5.481 4.318-6.462 8.195-.822 3.25-.708 7.713.271 10.635.34 1.014 1.029 2.43 1.575 3.234 1.425 2.099 3.612 3.543 6.264 4.138 1.16.26 4.427.206 5.819-.096zm123.5225 8.8744c-7.1368-.432-11.637-3.252-13.2203-8.286-.3774-1.199-.55-2.314-.6106-3.942-.117-3.143.55-5.59 2.081-7.63 2.213-2.95 5.597-4.619 10.985-5.418 1.451-.215 5.823-.248 7.103-.053.802.122 3.698.656 4.131.761l.217.053-.001-1.677c-.001-3.818-.686-5.977-2.464-7.767-.648-.652-.937-.86-1.788-1.283-1.599-.795-2.605-.981-5.315-.983-2.034-.001-3.576.112-5.303.389-1.338.214-3.263.66-4.075.944l-.536.187-.41-2.9116c-.225-1.601-.408-2.962-.407-3.024.009-.355 3.875-1.241 7.155-1.6395 2.023-.246 6.7562-.2496 8.31-.0067 4.524.7074 7.536 2.41 9.521 5.3828.952 1.426 1.56 2.965 1.9702 4.989.4474 2.206.4433 2.0515.4433 16.609v13.818l-1.5948.2624c-3.67.603-8.253 1.078-11.935 1.236-2.433.104-2.433.104-4.261-.007zm8.8516-6.268c.4518-.056 1.0497-.149 1.3288-.205l.5073-.102v-12.16l-.3527-.147c-1.055-.441-3.5354-.739-6.1704-.743-4.1876-.005-6.461.533-8.391 1.986-1.7265 1.3-2.3663 2.76-2.2514 5.136.0955 1.975.544 3.157 1.5987 4.2148.4917.493.8467.7406 1.5548 1.0837.95.4604 2.354.869 3.5268 1.026.8676.116 7.569.0496 8.649-.086zm-162.545 6.209c-1.9626-.12-4.361-.616-5.7237-1.183-.7845-.326-1.685-.87-2.3663-1.428-.9857-.807-2.0084-2.536-2.4838-4.199-.5668-1.983-.5396-.566-.5396-28.132V1.275l.2657-.0538c.1462-.03 1.679-.295 3.4065-.589 1.7274-.294 3.238-.557 3.3568-.584L64.648 0l.0278 25.5382c.026 23.7868.0392 25.5795.1938 26.143.3762 1.3712 1.17 2.394 2.2367 2.8824.5823.2666 1.664.5542 2.8113.7475.6557.111.7722.159.7676.316-.003.102-.2193 1.479-.4807 3.06l-.4752 2.875-.3407-.018c-.1874-.01-.58-.032-.8723-.05zm112.1336-.035c-3.1253-.24-5.788-1.089-7.3996-2.359-1.8436-1.452-2.9316-3.85-3.2618-7.188-.1-1.011-.15-50.652-.051-50.652.0726 0 6.8298-1.156 7.0778-1.211l.2162-.048.0272 25.635c.026 24.433.0355 25.662.2025 26.209.4018 1.318 1.0397 2.132 2.0845 2.659.6228.315 2.1596.727 3.11.834.477.054.5698.095.5698.252 0 .169-.7958 5.067-.927 5.707-.0617.3.0234.291-1.6486.163zM0 60.748c0-.1234 5.2597-14.355 7.0565-19.0938 4.7895-12.631 9.4413-23.82 13.4997-32.4706L21.803 6.526l3.4777-.0252 3.4778-.0254.2266.4603c3.37 6.8408 8.601 19.1913 13.314 31.4326 2.377 6.174 8.243 22.0363 8.243 22.2893 0 .1078-.718.1307-4.097.1307h-4.097l-.601-1.6186c-.713-1.92-1.23-3.3743-2.806-7.9002-.647-1.8603-1.262-3.6108-1.366-3.89l-.189-.5078-12.289.0246-12.289.0245-2.389 6.7163c-1.314 3.694-2.433 6.815-2.487 6.934l-.097.218H3.916c-2.1538 0-3.916-.018-3.916-.041zm35.1762-20.144c0-.2176-4.406-11.852-5.9885-15.813-1.5917-3.9846-4.0157-9.597-4.1058-9.507-.193.193-2.91 6.4693-4.282 9.8935-1.723 4.2967-5.725 15.045-5.725 15.3734 0 .117 1.441.137 10.05.137 5.634 0 10.05-.037 10.05-.084zm156.2636-.206V20.007h7.248v40.7813h-7.248V40.3977zm2.2328-27.888c-.74-.199-1.419-.5918-1.9986-1.156-.885-.862-1.298-1.951-1.296-3.4198.002-1.5297.3616-2.505 1.255-3.402.9075-.9118 1.9927-1.3418 3.3758-1.3378 1.4382.004 2.3396.339 3.2963 1.2248 1.496 1.3846 1.862 3.868.868 5.8864-.496 1.0087-1.537 1.8272-2.798 2.2013-.65.193-1.989.194-2.702.002z" fill="#555656"/>
</svg>
